<svg width="124" height="127" viewBox="0 0 124 127" fill="none" xmlns="http://www.w3.org/2000/svg">
<path d="M38.6777 99.0479C36.92 100.919 33.1432 105.333 32.0982 108.013" stroke="#70369B" stroke-width="2" stroke-linecap="round" stroke-linejoin="round"/>
<path d="M34.9155 89.2476C26.0882 90.4078 7.29542 94.138 2.74302 99.7762" stroke="#FBFBFB" stroke-width="2" stroke-linecap="round" stroke-linejoin="round"/>
<path d="M121.231 27.9559C114.937 27.9885 101.498 30.977 98.093 42.6697M98.093 42.6697C103.192 45.6052 111.343 52.3723 103.154 55.9571C100.816 56.416 96.5293 54.4011 98.093 42.6697ZM98.093 42.6697C87.7208 35.5045 64.9133 27.3505 56.661 52.0566C54.3502 62.2647 50.6021 85.3601 54.0967 96.0772C49.7734 84.0411 35.8722 57.5683 14.8534 47.9662M118.757 34.4356L122.648 27.3208L114.337 25.0972" stroke="#FBFBFB" stroke-width="2" stroke-linecap="round" stroke-linejoin="round"/>
<path d="M102.243 22.7383C99.6547 22.9174 94.3831 24.74 94.0005 30.5975" stroke="#70369B" stroke-width="2" stroke-linecap="round" stroke-linejoin="round"/>
</svg>
