<svg width="168" height="25" viewBox="0 0 168 25" fill="none" xmlns="http://www.w3.org/2000/svg">
<path d="M4.824 22.952V24.968L1.944 24.92L1.944 18.344L4.776 18.152V20.264L12.904 20.072L12.952 23.048L4.824 22.952ZM1.896 16.7814L1.944 13.9494L5.512 13.8054L5.512 11.3574L1.8 11.5494L1.848 8.74937L12.856 8.31737L12.856 11.2614L8.2 11.3574L8.152 13.7574L12.856 13.7094L12.904 16.7334L1.896 16.7814ZM1.992 6.55837L1.704 0.558374L4.344 0.462374L4.344 3.67837L6.232 3.82237L6.328 1.75837L8.536 1.80637L8.488 3.82237L10.36 3.87037L10.456 0.270374L13.048 0.222374L12.856 6.60637L1.992 6.55837Z" fill="#FBFBFB"/>
<path d="M17.2 0.999999H23.5L26.83 11.74H27.01L26.11 1.18L30.88 1.09L30.97 21.82L26.38 22L21.88 9.94H21.52L22.24 21.91H16.93L17.2 0.999999ZM34.5761 1.09H45.8261L46.0061 6.04L40.0661 5.77L39.9761 8.59L44.7461 8.77L44.6561 12.91L39.9761 12.82L40.5161 21.91L34.4861 21.73L34.5761 1.09ZM51.4923 6.67H47.7123L47.8023 1.27H60.1323L60.4923 6.58H56.5323L56.8923 21.82L51.3123 21.91L51.4923 6.67ZM73.382 1.18L81.032 0.999999L83.012 9.76H83.102L85.802 1.09L92.042 1.18L92.582 21.82L86.702 21.73L86.972 8.86H86.612L85.082 16.15L80.852 16.42L78.872 9.04L78.602 9.13L78.872 21.91L73.382 22.09V1.18ZM99.6365 22.15L94.9565 21.82L98.6465 3.22L105.216 3.04L109.806 21.67L104.376 22.15L103.896 19.36H100.026L99.6365 22.15ZM100.626 15.25L103.146 15.19L101.916 8.38H101.586L100.626 15.25ZM112.299 21.91V3.46C114.799 2.86 116.889 2.67 118.569 2.89C120.269 3.09 121.549 3.63 122.409 4.51C123.289 5.37 123.829 6.35 124.029 7.45C124.229 8.55 124.069 9.69 123.549 10.87C123.049 12.05 122.279 13.05 121.239 13.87L124.509 21.01L119.259 22.06L117.459 15.52C117.399 15.54 117.319 15.56 117.219 15.58C117.139 15.6 117.049 15.62 116.949 15.64C116.869 15.64 116.799 15.65 116.739 15.67L116.799 22L112.299 21.91ZM116.649 6.58L116.739 11.17C117.819 11.19 118.589 10.8 119.049 10C119.509 9.18 119.499 8.38 119.019 7.6C118.559 6.82 117.769 6.48 116.649 6.58ZM127.424 3.13L132.254 3.04V11.98H132.914L134.384 2.98L139.544 3.31L136.274 12.16L140.204 20.92L134.954 22L132.734 13.96H132.254L132.404 22L127.244 22.06L127.424 3.13ZM142.81 3.28L153.04 2.8L153.22 7.3H147.73L147.46 10.51L151 10.66L150.91 14.44L147.46 14.35L147.4 17.56L153.55 17.71L153.61 22.15L142.72 21.82L142.81 3.28ZM158.987 8.14H155.537L155.627 3.22H166.847L167.177 8.05H163.577L163.907 21.91L158.807 22L158.987 8.14Z" fill="#FBFBFB"/>
</svg>
